<svg xmlns="http://www.w3.org/2000/svg" xmlns:xlink="http://www.w3.org/1999/xlink" width="500" zoomAndPan="magnify" viewBox="0 0 375 374.999991" height="500" preserveAspectRatio="xMidYMid meet" version="1.0"><defs><g/><clipPath id="5820d33466"><path d="M 0 0 L 207 0 L 207 223.5 L 0 223.5 Z M 0 0 " clip-rule="nonzero"/></clipPath></defs><g clip-path="url(#5820d33466)"><path fill="#0f4995" d="M 206.964844 223.132812 C 191.789062 221.058594 176.328125 219.558594 160.710938 218.597656 C 158.988281 214.726562 156.597656 211.328125 153.535156 208.402344 C 149.09375 204.21875 144.226562 200.609375 138.933594 197.566406 C 141.550781 197.597656 144.09375 198.050781 146.558594 198.929688 C 149.023438 199.804688 151.28125 201.058594 153.332031 202.6875 C 161.113281 175.589844 185.105469 159.910156 177.808594 123.652344 C 181.964844 100.980469 172.511719 87.234375 166.992188 75.109375 C 169.769531 76.8125 171.859375 79.136719 173.253906 82.085938 C 175.292969 73.828125 178.394531 66.117188 172.0625 55.789062 C 179.296875 61.820312 179.722656 68.691406 177.558594 78.980469 C 186.011719 74.925781 189.820312 69.667969 191.859375 63.949219 C 193.148438 60.339844 193.347656 55.3125 194.882812 50.953125 C 196.851562 45.363281 199.058594 41.539062 198.113281 38.847656 C 197.136719 36.585938 195.972656 34.425781 194.621094 32.367188 C 193.046875 30.039062 191.304688 27.839844 189.394531 25.777344 C 187.488281 23.710938 185.433594 21.804688 183.234375 20.050781 C 181.035156 18.300781 178.714844 16.726562 176.277344 15.324219 C 173.839844 13.925781 171.308594 12.71875 168.683594 11.707031 C 155.851562 6.515625 144.25 6.652344 133.28125 0.949219 C 132.667969 0.625 132.019531 0.429688 131.332031 0.363281 C 127.601562 -0.0273438 123.378906 0.0234375 120.222656 1.304688 C 115.894531 3.050781 113.011719 5.714844 107.570312 6.75 C 106.554688 6.929688 105.667969 7.375 104.910156 8.078125 C 104.285156 8.652344 103.730469 9.285156 103.246094 9.980469 C 102.699219 10.742188 102.375 11.589844 102.277344 12.523438 C 102.179688 13.457031 102.316406 14.351562 102.691406 15.210938 C 104.121094 18.625 104.210938 22.566406 105.253906 25.132812 C 105.375 25.429688 105.542969 25.699219 105.757812 25.9375 C 105.972656 26.175781 106.222656 26.371094 106.503906 26.519531 C 106.789062 26.667969 107.089844 26.765625 107.40625 26.808594 C 107.726562 26.851562 108.039062 26.839844 108.355469 26.769531 C 110.773438 26.191406 113.222656 26.027344 115.699219 26.28125 C 116.179688 26.34375 116.660156 26.34375 117.136719 26.277344 C 117.617188 26.210938 118.082031 26.078125 118.527344 25.886719 C 118.96875 25.695312 119.382812 25.445312 119.757812 25.140625 C 120.136719 24.835938 120.464844 24.488281 120.746094 24.09375 C 122.617188 21.550781 124.085938 18.5 127.195312 17.179688 C 128.484375 15.375 129.371094 13.390625 129.855469 11.230469 C 130.34375 9.066406 130.386719 6.894531 129.988281 4.714844 C 132.914062 8.710938 132.375 13.382812 130.824219 18.042969 C 141.46875 20.0625 145.34375 32.5 157.128906 39.328125 C 165.316406 31.078125 177.722656 38.3125 188.992188 36.035156 C 179.277344 43.121094 165.339844 32.449219 155.035156 46.082031 C 158.34375 45.339844 161.558594 46.296875 164.601562 47.523438 C 147.46875 47.578125 132.308594 56.136719 126.050781 73.714844 C 128.066406 73.707031 129.972656 73.246094 131.773438 72.335938 C 130.675781 74.042969 129.191406 75.28125 127.3125 76.050781 C 124.511719 77.34375 123.152344 77.53125 120.320312 76.21875 C 117.269531 74.597656 114.652344 72.445312 112.472656 69.765625 C 109.347656 66.242188 107.917969 65.320312 107.648438 60.5 C 107.480469 57.480469 107.640625 54.140625 105.941406 49.835938 C 102.613281 41.390625 93.84375 34.789062 84.613281 34.917969 C 74.0625 35.066406 62.527344 44.367188 58.230469 53.636719 C 57.527344 55.097656 57.0625 56.628906 56.839844 58.234375 C 56.617188 59.839844 56.644531 61.441406 56.921875 63.039062 C 57.292969 65.238281 58.332031 66.828125 58.5625 68.804688 C 58.5625 70 58.800781 71.148438 59.273438 72.246094 C 59.898438 73.058594 60.707031 73.601562 61.695312 73.878906 C 62.949219 74.386719 63.125 74.882812 62.71875 76.121094 C 62.15625 77.6875 61.921875 79.296875 62.015625 80.957031 C 62.039062 83.007812 61.996094 84.914062 61.886719 86.960938 C 61.867188 87.417969 62.257812 87.761719 62.746094 88.011719 C 63.164062 88.261719 63.617188 88.398438 64.101562 88.417969 C 64.589844 88.441406 65.050781 88.339844 65.488281 88.125 C 66.019531 87.90625 66.398438 87.671875 66.785156 87.503906 C 67.464844 87.207031 67.992188 87.160156 68.375 87.648438 C 68.714844 88.160156 68.847656 88.722656 68.769531 89.332031 C 68.6875 89.84375 68.777344 90.320312 69.042969 90.765625 C 69.550781 91.246094 70.148438 91.546875 70.835938 91.664062 C 71.128906 91.730469 71.371094 91.878906 71.566406 92.109375 C 71.757812 92.339844 71.863281 92.605469 71.878906 92.90625 C 71.890625 93.128906 71.9375 93.34375 72.015625 93.554688 C 72.378906 94.484375 73.257812 94.378906 74.023438 94.988281 C 74.652344 95.511719 75.0625 96.175781 75.253906 96.972656 C 75.628906 98.382812 75.253906 98.808594 76.734375 99.867188 C 77.480469 100.378906 78.296875 100.714844 79.1875 100.875 C 82.78125 101.578125 85.734375 98.015625 87.84375 95.519531 C 92.097656 90.480469 95.253906 83.507812 95.253906 76.980469 C 98.457031 83 93.382812 92.730469 89.144531 98.386719 C 89.984375 98.601562 90.742188 98.984375 91.414062 99.53125 C 92.085938 100.078125 92.613281 100.738281 92.996094 101.515625 C 97.09375 98.644531 98.535156 91.601562 103.945312 91.796875 C 97.316406 95.285156 96.625 105.757812 87.21875 107.226562 C 88.566406 108.046875 89.683594 109.113281 90.570312 110.421875 C 91.453125 111.734375 92.023438 113.167969 92.28125 114.726562 C 90.019531 112.054688 87.328125 109.929688 84.199219 108.359375 C 70.222656 101.265625 56.085938 110.5 49.015625 122.914062 C 46.589844 123.015625 44.234375 123.472656 41.949219 124.277344 C 39.660156 125.085938 37.542969 126.210938 35.59375 127.65625 C 37.046875 134.074219 37.285156 143.953125 28.570312 150.589844 C 40.238281 127.632812 24.335938 114.875 18.898438 99.433594 C 17.539062 95.578125 16.484375 90.679688 18.371094 86.808594 C 17.203125 86.234375 16.210938 85.441406 15.398438 84.425781 C 14.582031 83.410156 14.023438 82.269531 13.71875 81.003906 C 21.121094 87.183594 29.9375 84.59375 33 79.550781 C 35.246094 79.953125 39.253906 80.292969 41.253906 79.046875 C 41.921875 78.625 42.421875 78.054688 42.757812 77.34375 C 43.011719 76.902344 43.152344 76.425781 43.179688 75.914062 C 43.207031 75.40625 43.117188 74.917969 42.90625 74.453125 C 42.394531 73.5 41.160156 73.074219 39.636719 72.683594 C 39.519531 71.300781 39.21875 69.964844 38.730469 68.667969 C 38.5 68.039062 38.132812 67.5 37.632812 67.058594 C 37.132812 66.613281 36.554688 66.316406 35.902344 66.164062 C 32.507812 65.34375 29.289062 64.085938 26.242188 62.382812 C 25.976562 62.230469 25.6875 62.125 25.382812 62.070312 C 25.078125 62.015625 24.773438 62.011719 24.46875 62.0625 C 24.164062 62.109375 23.875 62.207031 23.601562 62.355469 C 23.332031 62.503906 23.089844 62.695312 22.882812 62.925781 C 18.332031 67.839844 13.40625 72.351562 8.113281 76.457031 C 7.371094 77.027344 6.824219 77.746094 6.472656 78.613281 C 0.632812 92.417969 -1.074219 112.4375 0.625 132.347656 C 1.242188 139.546875 6.789062 160.492188 12.179688 165.222656 C 12.800781 165.78125 13.5 166.210938 14.28125 166.515625 C 18.082031 167.933594 23.398438 167.707031 27.183594 167.742188 C 41.992188 172.308594 52.894531 169.253906 64.542969 159.78125 C 72.84375 153.027344 80.742188 145.324219 93.015625 151.039062 C 86.609375 150.339844 83.101562 151.246094 79.191406 154.441406 C 81.335938 155.113281 83.207031 156.238281 84.808594 157.816406 C 88.730469 161.429688 91.050781 164.175781 94.09375 166.699219 C 99.628906 171.296875 106.925781 174.210938 113.785156 176.199219 C 118.875 177.632812 124.03125 178.75 129.257812 179.550781 C 113.082031 180.015625 99.996094 177.101562 90.738281 169.773438 C 90.429688 171.007812 90.34375 172.257812 90.480469 173.523438 C 90.613281 174.789062 90.964844 175.992188 91.527344 177.132812 C 91.894531 177.84375 91.933594 178.570312 91.640625 179.3125 C 90.183594 183.226562 88.976562 189.664062 92.597656 194.964844 C 92.875 195.363281 93.035156 195.804688 93.074219 196.289062 C 93.113281 196.777344 93.023438 197.238281 92.808594 197.675781 C 90.179688 203.199219 87.894531 211.253906 89.125 218.105469 C 70.5 219 52.066406 220.667969 34.039062 223.132812 C 33.867188 223.152344 33.789062 223.25 33.800781 223.421875 C 33.8125 223.589844 33.90625 223.675781 34.074219 223.675781 L 206.925781 223.675781 C 207.097656 223.675781 207.1875 223.589844 207.199219 223.421875 C 207.210938 223.25 207.132812 223.152344 206.964844 223.132812 Z M 104.976562 217.550781 C 103.929688 217.574219 102.878906 217.601562 101.832031 217.628906 C 103.953125 212.890625 106.777344 208.613281 110.304688 204.804688 C 108.257812 208.941406 106.480469 213.1875 104.976562 217.550781 Z M 131.714844 105.761719 C 152.742188 116.382812 156.042969 140.464844 152.246094 161.671875 C 156.050781 169.820312 155.65625 177.867188 153.082031 187.90625 C 153.570312 178.011719 151.78125 170.332031 148 164.019531 C 151.1875 143.832031 148.960938 121.597656 131.714844 105.761719 Z M 131.714844 105.761719 " fill-opacity="1" fill-rule="nonzero"/></g><g fill="#456c9f" fill-opacity="1"><g transform="translate(207.204, 165.139927)"><g><path d="M 21.351562 0 L 21.351562 -81.679688 L 5.4375 -81.679688 L 5.4375 0 Z M 21.351562 0 "/></g></g></g><g fill="#154481" fill-opacity="1"><g transform="translate(233.998936, 160.102667)"><g><path d="M 17.472656 0 L 17.472656 -28.566406 L 46.289062 -28.566406 L 46.289062 -40.078125 L 17.472656 -40.078125 L 17.472656 -54.984375 L 49.1875 -54.984375 L 49.1875 -67.15625 L 4.554688 -67.15625 L 4.554688 0 Z M 17.472656 0 "/></g></g></g><g fill="#154481" fill-opacity="1"><g transform="translate(285.9986, 160.102667)"><g><path d="M 17.554688 0 L 17.554688 -67.15625 L 4.472656 -67.15625 L 4.472656 0 Z M 17.554688 0 "/></g></g></g><g fill="#154481" fill-opacity="1"><g transform="translate(308.023935, 160.102667)"><g><path d="M 36.019531 0 L 36.019531 -54.984375 L 57.300781 -54.984375 L 57.300781 -67.15625 L 1.65625 -67.15625 L 1.65625 -54.984375 L 23.019531 -54.984375 L 23.019531 0 Z M 36.019531 0 "/></g></g></g></svg>