<svg xmlns="http://www.w3.org/2000/svg" xmlns:xlink="http://www.w3.org/1999/xlink" width="500" zoomAndPan="magnify" viewBox="0 0 375 374.999991" height="500" preserveAspectRatio="xMidYMid meet" version="1.0"><defs><g/><clipPath id="f15ac9a3cb"><path d="M 0 84.226562 L 191.25 84.226562 L 191.25 290.476562 L 0 290.476562 Z M 0 84.226562 " clip-rule="nonzero"/></clipPath></defs><g clip-path="url(#f15ac9a3cb)"><path fill="#2a4365" d="M 190.972656 290.125 C 176.972656 288.210938 162.703125 286.828125 148.292969 285.9375 C 146.703125 282.371094 144.496094 279.234375 141.675781 276.53125 C 137.574219 272.671875 133.082031 269.339844 128.203125 266.53125 C 130.617188 266.5625 132.960938 266.980469 135.238281 267.789062 C 137.511719 268.601562 139.59375 269.757812 141.484375 271.261719 C 148.664062 246.253906 170.804688 231.785156 164.070312 198.328125 C 167.90625 177.410156 159.183594 164.722656 154.089844 153.535156 C 156.65625 155.109375 158.582031 157.253906 159.867188 159.972656 C 161.75 152.355469 164.613281 145.242188 158.769531 135.707031 C 165.441406 141.277344 165.835938 147.617188 163.839844 157.109375 C 171.640625 153.367188 175.152344 148.515625 177.039062 143.238281 C 178.226562 139.910156 178.410156 135.269531 179.828125 131.246094 C 181.640625 126.089844 183.679688 122.5625 182.808594 120.078125 C 181.90625 117.992188 180.832031 115.996094 179.585938 114.097656 C 176.660156 109.773438 173.160156 105.984375 169.078125 102.734375 C 164.996094 99.480469 160.519531 96.914062 155.652344 95.03125 C 143.8125 90.242188 133.105469 90.371094 122.984375 85.105469 C 122.417969 84.808594 121.820312 84.628906 121.183594 84.566406 C 117.742188 84.207031 113.847656 84.25 110.933594 85.433594 C 106.9375 87.046875 104.277344 89.503906 99.261719 90.457031 C 98.320312 90.625 97.503906 91.035156 96.804688 91.6875 C 96.226562 92.214844 95.714844 92.796875 95.269531 93.441406 C 94.765625 94.144531 94.464844 94.925781 94.375 95.785156 C 94.285156 96.644531 94.414062 97.472656 94.757812 98.265625 C 96.078125 101.417969 96.160156 105.054688 97.121094 107.421875 C 97.234375 107.695312 97.386719 107.945312 97.585938 108.164062 C 97.785156 108.382812 98.015625 108.5625 98.277344 108.699219 C 98.539062 108.839844 98.816406 108.929688 99.109375 108.96875 C 99.402344 109.007812 99.695312 108.996094 99.984375 108.933594 C 102.214844 108.398438 104.476562 108.246094 106.757812 108.480469 C 107.664062 108.601562 108.53125 108.480469 109.367188 108.117188 C 110.203125 107.753906 110.886719 107.203125 111.417969 106.464844 C 113.144531 104.117188 114.5 101.300781 117.367188 100.082031 C 118.558594 98.417969 119.378906 96.589844 119.824219 94.59375 C 120.273438 92.597656 120.3125 90.59375 119.945312 88.578125 C 122.644531 92.269531 122.148438 96.578125 120.714844 100.878906 C 130.539062 102.746094 134.117188 114.21875 144.988281 120.519531 C 152.542969 112.90625 163.992188 119.582031 174.390625 117.480469 C 165.425781 124.023438 152.566406 114.171875 143.058594 126.75 C 146.109375 126.066406 149.078125 126.949219 151.886719 128.082031 C 136.074219 128.132812 122.085938 136.03125 116.3125 152.25 C 118.171875 152.242188 119.933594 151.820312 121.59375 150.980469 C 120.582031 152.554688 119.210938 153.695312 117.476562 154.40625 C 114.894531 155.597656 113.636719 155.769531 111.023438 154.5625 C 108.207031 153.066406 105.796875 151.078125 103.785156 148.605469 C 100.898438 145.355469 99.582031 144.503906 99.332031 140.054688 C 99.175781 137.269531 99.324219 134.1875 97.757812 130.21875 C 94.683594 122.425781 86.59375 116.332031 78.078125 116.449219 C 68.339844 116.585938 57.695312 125.171875 53.730469 133.722656 C 53.082031 135.070312 52.65625 136.484375 52.449219 137.96875 C 52.242188 139.449219 52.265625 140.925781 52.523438 142.398438 C 52.867188 144.429688 53.824219 145.894531 54.039062 147.71875 C 54.039062 148.824219 54.257812 149.882812 54.695312 150.894531 C 55.273438 151.644531 56.015625 152.144531 56.925781 152.402344 C 58.085938 152.867188 58.246094 153.328125 57.871094 154.472656 C 57.351562 155.914062 57.136719 157.402344 57.226562 158.933594 C 57.246094 160.824219 57.203125 162.585938 57.105469 164.472656 C 57.085938 164.894531 57.449219 165.210938 57.898438 165.441406 C 58.285156 165.675781 58.699219 165.800781 59.152344 165.820312 C 59.601562 165.835938 60.027344 165.746094 60.429688 165.546875 C 60.921875 165.34375 61.269531 165.128906 61.625 164.972656 C 62.253906 164.699219 62.742188 164.65625 63.089844 165.105469 C 63.40625 165.578125 63.527344 166.097656 63.457031 166.664062 C 63.382812 167.132812 63.464844 167.574219 63.707031 167.984375 C 64.175781 168.425781 64.726562 168.703125 65.363281 168.8125 C 65.632812 168.875 65.859375 169.011719 66.035156 169.222656 C 66.214844 169.4375 66.3125 169.679688 66.324219 169.957031 C 66.339844 170.164062 66.378906 170.363281 66.453125 170.558594 C 66.789062 171.414062 67.597656 171.320312 68.300781 171.878906 C 68.882812 172.363281 69.261719 172.976562 69.4375 173.710938 C 69.789062 175.011719 69.4375 175.402344 70.804688 176.382812 C 71.492188 176.855469 72.246094 177.164062 73.066406 177.3125 C 76.386719 177.960938 79.109375 174.675781 81.054688 172.371094 C 84.984375 167.71875 87.894531 161.285156 87.894531 155.265625 C 90.851562 160.820312 86.167969 169.796875 82.257812 175.015625 C 83.03125 175.214844 83.730469 175.566406 84.351562 176.070312 C 84.972656 176.574219 85.457031 177.1875 85.8125 177.90625 C 89.59375 175.253906 90.921875 168.753906 95.914062 168.9375 C 89.796875 172.15625 89.160156 181.820312 80.480469 183.171875 C 81.726562 183.929688 82.757812 184.914062 83.570312 186.121094 C 84.386719 187.332031 84.914062 188.65625 85.148438 190.09375 C 83.066406 187.628906 80.582031 185.667969 77.695312 184.21875 C 64.796875 177.675781 51.753906 186.195312 45.226562 197.648438 C 42.992188 197.742188 40.816406 198.164062 38.707031 198.90625 C 36.597656 199.652344 34.640625 200.691406 32.84375 202.023438 C 34.183594 207.949219 34.40625 217.0625 26.363281 223.183594 C 37.132812 202 22.457031 190.230469 17.441406 175.984375 C 16.183594 172.421875 15.210938 167.90625 16.949219 164.332031 C 15.875 163.804688 14.960938 163.070312 14.207031 162.132812 C 13.457031 161.195312 12.941406 160.144531 12.65625 158.976562 C 19.488281 164.679688 27.625 162.289062 30.453125 157.636719 C 32.523438 158.007812 36.222656 158.320312 38.066406 157.171875 C 38.679688 156.78125 39.144531 156.257812 39.457031 155.597656 C 39.691406 155.191406 39.820312 154.75 39.84375 154.28125 C 39.867188 153.8125 39.785156 153.363281 39.59375 152.929688 C 39.121094 152.050781 37.980469 151.65625 36.574219 151.296875 C 36.464844 150.023438 36.1875 148.789062 35.738281 147.59375 C 35.523438 147.011719 35.1875 146.515625 34.726562 146.109375 C 34.261719 145.699219 33.730469 145.421875 33.128906 145.28125 C 29.996094 144.527344 27.027344 143.363281 24.214844 141.792969 C 23.96875 141.652344 23.703125 141.554688 23.421875 141.503906 C 23.140625 141.453125 22.859375 141.449219 22.578125 141.496094 C 22.296875 141.542969 22.03125 141.632812 21.777344 141.769531 C 21.527344 141.90625 21.308594 142.082031 21.117188 142.292969 C 16.914062 146.832031 12.371094 150.992188 7.484375 154.78125 C 6.800781 155.308594 6.296875 155.972656 5.972656 156.769531 C 0.582031 169.507812 -0.992188 187.980469 0.578125 206.351562 C 1.144531 212.996094 6.265625 232.324219 11.238281 236.691406 C 11.8125 237.203125 12.457031 237.601562 13.175781 237.882812 C 16.683594 239.1875 21.589844 238.980469 25.085938 239.015625 C 38.746094 243.226562 48.808594 240.410156 59.558594 231.667969 C 67.214844 225.4375 74.503906 218.328125 85.828125 223.601562 C 79.917969 222.957031 76.683594 223.792969 73.070312 226.742188 C 75.050781 227.359375 76.777344 228.398438 78.253906 229.855469 C 81.875 233.1875 84.019531 235.722656 86.824219 238.050781 C 91.933594 242.292969 98.664062 244.984375 104.992188 246.816406 C 109.691406 248.136719 114.449219 249.167969 119.269531 249.910156 C 104.34375 250.339844 92.269531 247.648438 83.730469 240.890625 C 83.445312 242.027344 83.363281 243.179688 83.488281 244.347656 C 83.613281 245.515625 83.9375 246.625 84.457031 247.679688 C 84.796875 248.332031 84.828125 249.003906 84.558594 249.6875 C 83.214844 253.300781 82.101562 259.242188 85.441406 264.132812 C 85.699219 264.5 85.847656 264.90625 85.882812 265.355469 C 85.917969 265.804688 85.835938 266.230469 85.636719 266.632812 C 83.210938 271.730469 81.101562 279.164062 82.242188 285.484375 C 65.054688 286.3125 48.042969 287.847656 31.410156 290.125 C 31.253906 290.144531 31.179688 290.230469 31.191406 290.390625 C 31.199219 290.546875 31.285156 290.625 31.441406 290.625 L 190.941406 290.625 C 191.097656 290.625 191.179688 290.546875 191.191406 290.390625 C 191.203125 290.234375 191.128906 290.144531 190.972656 290.125 Z M 96.867188 284.972656 C 95.898438 284.996094 94.933594 285.019531 93.964844 285.046875 C 95.921875 280.671875 98.527344 276.726562 101.785156 273.214844 C 99.894531 277.027344 98.253906 280.949219 96.867188 284.972656 Z M 121.539062 181.824219 C 140.941406 191.621094 143.984375 213.84375 140.484375 233.410156 C 143.992188 240.933594 143.632812 248.355469 141.253906 257.617188 C 141.703125 248.492188 140.054688 241.402344 136.566406 235.578125 C 139.503906 216.949219 137.453125 196.433594 121.539062 181.824219 Z M 121.539062 181.824219 " fill-opacity="1" fill-rule="nonzero"/></g><g fill="#a2caff" fill-opacity="1"><g transform="translate(192.172951, 245.356356)"><g><path d="M 23.371094 0 L 23.371094 -89.398438 L 5.953125 -89.398438 L 5.953125 0 Z M 23.371094 0 "/></g></g></g><g fill="#2a4365" fill-opacity="1"><g transform="translate(226.16106, 234.768772)"><g><path d="M 17.8125 0 L 17.8125 -29.125 L 47.191406 -29.125 L 47.191406 -40.859375 L 17.8125 -40.859375 L 17.8125 -56.054688 L 50.144531 -56.054688 L 50.144531 -68.464844 L 4.644531 -68.464844 L 4.644531 0 Z M 17.8125 0 "/></g></g></g><g fill="#2a4365" fill-opacity="1"><g transform="translate(287.279895, 234.768772)"><g><path d="M 17.898438 0 L 17.898438 -68.464844 L 4.558594 -68.464844 L 4.558594 0 Z M 17.898438 0 "/></g></g></g><g fill="#2a4365" fill-opacity="1"><g transform="translate(317.839821, 234.768772)"><g><path d="M 36.722656 0 L 36.722656 -56.054688 L 58.417969 -56.054688 L 58.417969 -68.464844 L 1.6875 -68.464844 L 1.6875 -56.054688 L 23.46875 -56.054688 L 23.46875 0 Z M 36.722656 0 "/></g></g></g></svg>